C:\Users\u0150099\Documents\PredSim_dev\Subjects\test_1\MuscleAnalysis\dummy_motion.mot
version=1
nRows=16
nColumns=32
inDegrees=no
endheader
                time	         pelvis_tilt	         pelvis_list	     pelvis_rotation	           pelvis_tx	           pelvis_ty	           pelvis_tz	       hip_flexion_l	     hip_adduction_l	      hip_rotation_l	       hip_flexion_r	     hip_adduction_r	      hip_rotation_r	        knee_angle_l	        knee_angle_r	       ankle_angle_l	       ankle_angle_r	    subtalar_angle_l	    subtalar_angle_r	         mtp_angle_l	         mtp_angle_r	    lumbar_extension	      lumbar_bending	     lumbar_rotation	          arm_flex_l	           arm_add_l	           arm_rot_l	          arm_flex_r	           arm_add_r	           arm_rot_r	        elbow_flex_l	        elbow_flex_r	
         12.51000000	          0.00000000	          0.00000000	          0.00000000	          0.00000000	          0.00000000	          0.00000000	          0.33420271	          0.25645954	          0.10026286	         -0.83504708	         -0.36183929	         -0.24094798	         -1.26276739	         -0.58912959	         -0.22193599	         -0.10601154	         -0.11198099	         -0.03379643	         -0.15266931	          0.72411790	          0.34792625	         -0.06727030	         -0.01342116	          0.34655825	          0.42162673	          0.43412870	         -0.23973995	         -0.07359215	          0.16161447	          0.04362046	          0.01988133	
         12.52000000	          0.00000000	          0.00000000	          0.00000000	          0.00000000	          0.00000000	          0.00000000	          0.73297034	          0.25434177	         -0.23095281	          0.14827021	          0.30493680	         -0.23085650	         -1.24134856	         -1.09667338	         -0.39744031	         -0.12012662	          0.39633285	         -0.19642790	          0.09970926	          0.55284459	         -0.05320580	          0.47639516	          0.36960934	         -0.07817875	          0.18262451	         -0.21167948	          0.22677991	         -0.45702481	         -0.10368997	         -0.35671726	         -0.05043256	
         12.53000000	          0.00000000	          0.00000000	          0.00000000	          0.00000000	          0.00000000	          0.00000000	          0.78043532	         -0.18412129	         -0.32485689	          0.40417618	          0.16886764	         -0.28091891	         -1.21698779	         -0.43699250	         -0.21336454	         -0.34638201	         -0.04092679	          0.02754652	          0.29185137	          0.79843885	          0.07684213	          0.48598857	         -0.29364928	         -0.16626623	         -0.21679020	          0.14525307	          0.03481300	         -0.30821516	         -0.18172805	          0.28508212	          0.31333545	
         12.54000000	          0.00000000	          0.00000000	          0.00000000	          0.00000000	          0.00000000	          0.00000000	         -0.52410174	          0.10371372	         -0.37603322	         -0.42050401	         -0.17744151	         -0.42549340	         -0.45779448	         -1.11755185	          0.31791718	         -0.34730220	          0.38227308	         -0.37599174	          0.49143693	          0.25389083	          0.33211949	          0.07384149	         -0.43225670	          0.16357601	          0.23759389	         -0.03637600	         -0.18050357	         -0.25054919	         -0.10396380	          0.09417500	         -0.39828205	
         12.55000000	          0.00000000	          0.00000000	          0.00000000	          0.00000000	          0.00000000	          0.00000000	          0.79490352	         -0.15850381	          0.42887482	          0.32477956	         -0.15868454	          0.13126292	         -0.84094003	         -1.04957096	          0.36996374	          0.20730735	          0.17077314	          0.46064281	         -0.27430507	          0.50244931	         -0.47625194	          0.23952745	          0.15772867	         -0.15724354	         -0.02059543	         -0.06693814	         -0.49698199	          0.25549719	          0.07538729	         -0.25096425	          0.46568251	
         12.56000000	          0.00000000	          0.00000000	          0.00000000	          0.00000000	          0.00000000	          0.00000000	         -0.41737016	          0.45690514	          0.43282081	         -0.42108066	          0.35622568	         -0.49325501	         -1.46425972	         -0.07865086	         -0.39820831	         -0.15095914	          0.03325849	         -0.14997265	          0.55767264	         -0.13328171	         -0.06299902	         -0.48109571	         -0.39903508	          0.23737397	         -0.32142852	         -0.26675375	          0.13392628	         -0.42646651	          0.50182284	         -0.41635373	          0.30212946	
         12.57000000	          0.00000000	          0.00000000	          0.00000000	          0.00000000	          0.00000000	          0.00000000	          0.48779305	         -0.36935587	         -0.15900887	          0.06622138	          0.32864029	          0.05224846	         -0.46184755	         -1.14579395	         -0.01223996	         -0.20588364	         -0.14396637	          0.44117775	          0.27682142	          0.86875139	          0.32813009	          0.40182564	         -0.08099752	          0.20310926	          0.18346829	         -0.37610741	         -0.09672024	          0.33644092	          0.40121975	          0.03896615	          0.12327178	
         12.58000000	          0.00000000	          0.00000000	          0.00000000	          0.00000000	          0.00000000	          0.00000000	         -0.67102957	         -0.41465617	         -0.15129837	          0.21271328	         -0.10050725	         -0.34522278	         -0.08104351	         -0.02424149	          0.47454581	          0.24811432	          0.04071393	          0.38453404	         -0.19812115	          0.47030310	         -0.33473311	          0.37694922	         -0.01720696	          0.49487868	         -0.51551188	         -0.41914391	          0.32467407	          0.13785807	          0.31981294	          0.52336977	          0.11877831	
         12.59000000	          0.00000000	          0.00000000	          0.00000000	          0.00000000	          0.00000000	          0.00000000	          0.49170378	         -0.03262015	         -0.19557264	          0.73818788	         -0.02418586	          0.12271122	         -1.45882126	         -0.51540580	          0.30850111	          0.28850821	          0.45242335	          0.27547506	         -0.21583178	         -0.14334636	          0.09461951	         -0.01260808	          0.27000162	         -0.17259528	          0.22674815	         -0.02633807	          0.28926084	         -0.31811676	          0.49120577	          0.12390662	          0.47062451	
         12.60000000	          0.00000000	          0.00000000	          0.00000000	          0.00000000	          0.00000000	          0.00000000	         -0.14520296	         -0.25510286	         -0.34014640	         -0.19521051	          0.48933374	          0.52287636	         -0.21664392	         -1.51666844	          0.04655206	         -0.27200409	          0.23318209	         -0.35969240	          0.00725106	          0.34407796	          0.01535187	          0.04569276	         -0.50670747	         -0.33308255	         -0.23019684	         -0.22072899	         -0.01796662	          0.39514659	          0.24771063	          0.08235166	         -0.10669904	
         12.61000000	          0.00000000	          0.00000000	          0.00000000	          0.00000000	          0.00000000	          0.00000000	          0.74292664	         -0.14657667	          0.20013076	          0.20862435	          0.02735433	         -0.15714279	         -0.52739856	         -0.46741248	          0.40292318	          0.01347422	         -0.07703055	         -0.20763548	         -0.18913889	          0.36786979	          0.00552129	         -0.33294981	          0.41078003	         -0.32721282	          0.08937334	         -0.05591357	          0.23359251	         -0.10617679	         -0.45893922	          0.50929107	          0.11832871	
         12.62000000	          0.00000000	          0.00000000	          0.00000000	          0.00000000	          0.00000000	          0.00000000	          0.27595757	          0.47574673	          0.09962869	          0.03788762	          0.28844291	         -0.48048809	         -1.13266595	         -0.37584379	          0.21680321	          0.30774484	         -0.42316324	          0.28094343	         -0.09441848	         -0.11698019	         -0.21894490	          0.20262198	          0.37490609	         -0.09725799	         -0.46744992	         -0.26400541	          0.28205880	          0.50631587	         -0.39956174	          0.15438753	         -0.26901138	
         12.63000000	          0.00000000	          0.00000000	          0.00000000	          0.00000000	          0.00000000	          0.00000000	          0.49696106	         -0.13996250	          0.12857137	         -0.72973885	          0.18238236	          0.20794051	         -0.99564768	         -0.64725258	          0.35338813	          0.33270349	         -0.33278919	         -0.22364807	          0.45020809	          0.24450843	         -0.31764212	          0.25907323	          0.31194363	         -0.00860777	         -0.40560835	          0.00656122	         -0.48648812	          0.17912089	         -0.50775216	         -0.32103742	          0.21369419	
         12.64000000	          0.00000000	          0.00000000	          0.00000000	          0.00000000	          0.00000000	          0.00000000	          0.21439929	         -0.29170562	         -0.09680602	         -0.50826419	         -0.17824696	          0.29605665	         -0.82694996	         -0.15932475	          0.18575427	         -0.12077471	         -0.39276288	         -0.45449692	          0.53556425	          0.49203132	         -0.38170386	         -0.17432299	         -0.19668340	          0.12635051	          0.04378789	         -0.09140311	          0.42409729	         -0.19296397	          0.25050598	         -0.44783209	          0.45178730	
         12.65000000	          0.00000000	          0.00000000	          0.00000000	          0.00000000	          0.00000000	          0.00000000	         -0.57670162	          0.39124535	         -0.15317916	          0.64943772	         -0.01634334	         -0.31286046	         -0.95589143	         -1.30276593	          0.23774479	         -0.12496091	         -0.11303125	         -0.47012771	          0.56538192	          0.77859599	          0.13107396	         -0.15704648	         -0.08171959	          0.20714731	          0.48435931	         -0.50279853	         -0.32671332	          0.33252145	         -0.07663197	         -0.44841127	          0.00558459	
         12.66000000	          0.00000000	          0.00000000	          0.00000000	          0.00000000	          0.00000000	          0.00000000	         -0.42532046	          0.04416045	          0.02365782	         -0.11580870	         -0.14627566	         -0.11650463	         -1.28053227	         -0.43417401	          0.06749534	          0.31719946	         -0.29004443	         -0.25417393	          0.48196129	          0.80137723	          0.27610288	          0.26587368	          0.30725192	         -0.51666462	         -0.32283771	         -0.36764344	         -0.39870389	          0.18533652	          0.28403834	         -0.31282999	          0.16198943	
